# xmcd
#
# Track frame offsets:
# 150
# 17415
# 29515
# 51730
# 66095
# 83257
# 102570
# 113160
# 133882
# 151987
#
# Disc length: 2238 seconds
#
#
# Revision: 2
# Processed by: cddbd v1.4PL0 Copyright (c) Steve Scherf et al.
# Submitted via: FreeRIP 2.40 
#
DISCID=8108bc0a
DTITLE=Various Artist - Blues Harp Power
DYEAR=1997
DGENRE=Blues
TTITLE0=James Cotton - Superharp
TTITLE1=Sugar Ray and The Bluetones - Mouth On Fire
TTITLE2=Louisiana Red - Vivienne
TTITLE3=Rod Piazza and the Mighty Flyers - Deep Fried
TTITLE4=Jumpin' Johnny Sansone - The Talkin' Is Over (The Waqlkin' Has Begun)
TTITLE5=William Clarke - The War Is Over
TTITLE6=Anson Fundeburgh and th Rockets - Rack Em' Up
TTITLE7=Johnny Hoy and The Bluefish - Made For One Another
TTITLE8=Darrell Nulisch and Texas Heat - Orange Soda
TTITLE9=Lee McBee and Mike Morgan - Sweet Lolita
EXTD=
EXTT0=
EXTT1=
EXTT2=
EXTT3=
EXTT4=
EXTT5=
EXTT6=
EXTT7=
EXTT8=
EXTT9=
PLAYORDER=
